<svg id="Capa_1" xmlns="http://www.w3.org/2000/svg" viewBox="-123 138.6 73 55"><style>.st0{fill:#FFFFFF;stroke:#000000;stroke-linecap:round;stroke-linejoin:round;stroke-miterlimit:10;} .st1{fill:none;stroke:#000000;stroke-linecap:round;stroke-linejoin:round;stroke-miterlimit:10;} .st2{fill:#FFFFFF;}</style><path class="st0" d="M-93.4 140.8l-11.1 11.7v38.3h34v-50z"/><path class="st0" d="M-93.5 151.8v-10.6l-10.9 10.6zm-17.403 40.47l-1.555-1.555 5.515-5.515 1.556 1.555zm5.16-6.05l-.778-.778 7.49-7.495.78.777z"/><circle class="st0" cx="-92.2" cy="171.9" r="9.6"/><circle class="st0" cx="-92.2" cy="171.9" r="7.9"/><path class="st0" d="M-98.4 171.9c0-3.4 2.8-6.2 6.2-6.2m-20.7 26.8c.4.4 1.1.4 1.5 0l-1.5-1.5c-.4.3-.4 1.1 0 1.5z"/><path class="st1" d="M-99.9 154.2h25m-25 7h25m-18.5-14h18.5m-8.1 20.6h8m-8 7h8m-25 9h25"/><path class="st2" d="M-99.2 168.2c4.6-.4 9.3-.4 13.9 0m-14.1 7c4.8.6 9.5.6 14.3 0"/><path d="M-85.2 174.2c-4.6.5-9.4.5-14.1 0-.2 0-.3 0-.4.1.2.7.6 1.4 1 2 2.2.2 4.3.4 6.5.4s4.4-.1 6.5-.4c.4-.6.7-1.3 1-2-.2 0-.4-.1-.5-.1zm-.1-5c.2 0 .4 0 .5-.1-.3-.7-.6-1.4-1.1-2-4.2-.3-8.4-.3-12.6 0-.4.6-.8 1.2-1.1 2 .1.1.3.1.5.1 4.5-.4 9.2-.4 13.8 0z"/></svg>